HIERARCHY
ROOT Hips
{
	OFFSET 0.000000 0.000000 0.000000
	CHANNELS 6 Xposition Yposition Zposition Xrotation Zrotation Yrotation
	JOINT Spine
	{
		OFFSET 0.000000 -0.744707 -0.000000
		CHANNELS 6 Xposition Yposition Zposition Xrotation Zrotation Yrotation
		JOINT Spine1
		{
			OFFSET 0.000000 -2.032240 -0.000000
			CHANNELS 6 Xposition Yposition Zposition Xrotation Zrotation Yrotation
			JOINT Neck
			{
				OFFSET 0.000000 -2.213880 -0.000000
				CHANNELS 6 Xposition Yposition Zposition Xrotation Zrotation Yrotation
				JOINT Head
				{
					OFFSET 0.000000 -1.407680 -0.181636
					CHANNELS 6 Xposition Yposition Zposition Xrotation Zrotation Yrotation
					End Site
					{
						OFFSET 0.000000 -1.816356 -0.000000
					}
				}
			}
			JOINT LeftShoulder
			{
				OFFSET 0.365767 -1.787590 0.048012
				CHANNELS 6 Xposition Yposition Zposition Xrotation Zrotation Yrotation
				JOINT LeftArm
				{
					OFFSET 1.305160 0.000000 0.000000
					CHANNELS 6 Xposition Yposition Zposition Xrotation Zrotation Yrotation
					JOINT LeftForeArm
					{
						OFFSET 2.559210 0.000000 0.000000
						CHANNELS 6 Xposition Yposition Zposition Xrotation Zrotation Yrotation
						JOINT LeftHand
						{
							OFFSET 2.378450 0.000000 0.000000
							CHANNELS 6 Xposition Yposition Zposition Xrotation Zrotation Yrotation
							End Site
							{
								OFFSET 1.362267 0.000000 0.000000
							}
						}
					}
				}
			}
			JOINT RightShoulder
			{
				OFFSET -0.360721 -1.787590 0.048012
				CHANNELS 6 Xposition Yposition Zposition Xrotation Zrotation Yrotation
				JOINT RightArm
				{
					OFFSET -1.305160 0.000000 0.000000
					CHANNELS 6 Xposition Yposition Zposition Xrotation Zrotation Yrotation
					JOINT RightForeArm
					{
						OFFSET -2.559210 0.000000 0.000000
						CHANNELS 6 Xposition Yposition Zposition Xrotation Zrotation Yrotation
						JOINT RightHand
						{
							OFFSET -2.378450 0.000000 0.000000
							CHANNELS 6 Xposition Yposition Zposition Xrotation Zrotation Yrotation
							End Site
							{
								OFFSET -1.362267 0.000000 0.000000
							}
						}
					}
				}
			}
		}
	}
	JOINT LeftUpLeg
	{
		OFFSET 0.908180 0.000000 0.000000
		CHANNELS 6 Xposition Yposition Zposition Xrotation Zrotation Yrotation
		JOINT LeftLeg
		{
			OFFSET 0.000000 3.819490 0.000002
			CHANNELS 6 Xposition Yposition Zposition Xrotation Zrotation Yrotation
			JOINT LeftFoot
			{
				OFFSET 0.000000 4.004300 0.000002
				CHANNELS 6 Xposition Yposition Zposition Xrotation Zrotation Yrotation
				JOINT LeftToeBase
				{
					OFFSET 0.000000 0.590317 -1.362270
					CHANNELS 6 Xposition Yposition Zposition Xrotation Zrotation Yrotation
					End Site
					{
						OFFSET 0.000000 0.000000 -0.363271
					}
				}
			}
		}
	}
	JOINT RightUpLeg
	{
		OFFSET -0.908180 0.000000 0.000000
		CHANNELS 6 Xposition Yposition Zposition Xrotation Zrotation Yrotation
		JOINT RightLeg
		{
			OFFSET 0.000000 3.819490 0.000002
			CHANNELS 6 Xposition Yposition Zposition Xrotation Zrotation Yrotation
			JOINT RightFoot
			{
				OFFSET 0.000000 4.004300 0.000002
				CHANNELS 6 Xposition Yposition Zposition Xrotation Zrotation Yrotation
				JOINT RightToeBase
				{
					OFFSET 0.000000 0.590317 -1.362270
					CHANNELS 6 Xposition Yposition Zposition Xrotation Zrotation Yrotation
					End Site
					{
						OFFSET 0.000000 0.000000 -0.363271
					}
				}
			}
		}
	}
}
MOTION
Frames: 8
Frame Time: 0.016667
-1.660254 -7.952991 -1.982769 7.409486 0.327800 2.552921 -0.000000 -0.744707 -0.000000 -22.171289 1.481866 -10.763975 0.000000 -2.032239 -0.000000 21.814156 -9.159978 -5.262072 0.000000 -2.213881 -0.000000 0.191672 -7.031581 2.261837 0.000000 -1.407681 -0.181636 7.400003 1.256575 1.330292 0.365767 -1.787591 0.048012 -2.828899 -13.429664 -0.728598 1.305160 0.000001 -0.000000 17.303910 46.352976 19.255478 2.559210 0.000002 -0.000000 -32.169266 0.671717 75.725686 2.378450 0.000000 -0.000001 -29.446667 -20.632436 -17.685798 -0.360721 -1.787590 0.048012 -5.516664 7.304273 -7.929200 -1.305160 0.000001 -0.000000 19.802829 -41.756382 -50.299675 -2.559209 -0.000000 -0.000001 -62.046401 27.505764 -117.515959 -2.378449 0.000001 -0.000000 -17.445888 56.783751 1.190272 0.908180 0.000001 -0.000000 -9.015754 -1.218060 -1.871344 -0.000000 3.819490 0.000001 10.694622 -2.355007 -4.944518 0.000000 4.004299 0.000001 -3.773391 -3.325470 -21.983029 0.000000 0.590316 -1.362270 0.000003 -0.000001 0.000001 -0.908180 0.000001 -0.000000 -20.909584 16.836295 -7.042747 -0.000000 3.819489 0.000001 22.072965 -5.227077 -15.487850 -0.000000 4.004299 0.000000 -1.420869 -3.174352 47.938550 -0.000001 0.590318 -1.362269 0.000004 0.000002 0.000003 
-1.642591 -7.954000 -1.976745 7.390241 0.330101 2.705469 -0.000000 -0.744707 0.000000 -22.100563 1.400852 -10.607324 0.000000 -2.032238 -0.000001 21.709230 -8.983755 -5.172545 -0.000000 -2.213881 -0.000000 0.436320 -7.219778 2.016970 0.000000 -1.407682 -0.181636 7.214291 1.517869 1.049572 0.365767 -1.787592 0.048012 -3.125085 -13.350381 -0.385540 1.305161 0.000001 -0.000000 14.268420 46.544150 17.854149 2.559210 0.000002 -0.000000 -32.948549 0.095493 75.582867 2.378450 0.000001 -0.000001 -29.327497 -23.583076 -17.565515 -0.360721 -1.787591 0.048012 -5.327887 7.264610 -7.810370 -1.305161 0.000002 -0.000000 20.143853 -42.254921 -50.596556 -2.559209 0.000001 0.000000 -61.595944 27.638798 -117.445513 -2.378449 0.000000 0.000001 -16.668612 56.916250 1.522848 0.908180 0.000000 0.000000 -9.098612 -1.126943 -1.910056 0.000000 3.819491 0.000001 10.842110 -2.316429 -5.266493 0.000000 4.004299 0.000001 -3.819884 -3.369773 -21.777220 0.000000 0.590316 -1.362270 0.000001 0.000000 0.000003 -0.908180 0.000001 0.000000 -21.136502 16.653115 -7.442629 0.000000 3.819490 0.000002 22.506916 -5.501643 -15.033409 -0.000000 4.004300 0.000001 -2.068775 -2.562225 48.031967 -0.000001 0.590316 -1.362270 0.000004 -0.000001 0.000003 
-1.626782 -7.955176 -1.970095 7.338953 0.348809 2.833969 0.000000 -0.744706 -0.000000 -21.989080 1.346919 -10.403340 -0.000000 -2.032239 0.000000 21.615404 -8.844706 -5.073970 0.000000 -2.213879 -0.000000 0.691416 -7.350503 1.736846 0.000000 -1.407678 -0.181636 6.998694 1.740430 0.742600 0.365767 -1.787588 0.048012 -3.524050 -13.291600 -0.006670 1.305160 0.000000 0.000000 11.727937 46.589383 16.649486 2.559211 0.000000 -0.000000 -33.898212 -0.504153 75.483330 2.378449 -0.000000 -0.000000 -29.366938 -26.563164 -17.415521 -0.360721 -1.787591 0.048012 -5.196825 7.248176 -7.749621 -1.305160 -0.000000 -0.000000 20.797164 -42.531936 -51.015991 -2.559210 -0.000001 -0.000001 -61.443323 27.912092 -117.379260 -2.378452 0.000002 -0.000001 -15.964280 57.156044 1.872056 0.908180 0.000001 -0.000000 -9.182198 -1.161156 -1.791047 -0.000000 3.819491 0.000002 11.060977 -2.078184 -5.239291 0.000000 4.004300 0.000001 -3.877732 -3.526699 -21.985044 0.000000 0.590316 -1.362270 0.000000 0.000001 0.000005 -0.908180 0.000000 -0.000000 -21.292271 16.432254 -7.855886 0.000000 3.819489 0.000002 22.884270 -5.761091 -14.458071 0.000000 4.004301 0.000001 -2.670851 -2.213551 47.989394 -0.000000 0.590316 -1.362271 0.000004 0.000001 0.000001 
-1.611688 -7.956424 -1.964397 7.296591 0.371483 2.947488 -0.000000 -0.744706 -0.000000 -21.895737 1.283966 -10.164798 -0.000000 -2.032242 -0.000001 21.517811 -8.691587 -4.961577 -0.000000 -2.213880 -0.000001 0.968002 -7.512624 1.438943 0.000000 -1.407683 -0.181636 6.787471 2.046726 0.408658 0.365767 -1.787590 0.048012 -3.817669 -13.228377 0.296765 1.305160 0.000001 -0.000000 9.076282 46.440574 15.430237 2.559210 0.000000 0.000000 -34.616741 -0.936289 75.295206 2.378449 -0.000001 0.000000 -29.287390 -29.623009 -17.300859 -0.360721 -1.787591 0.048012 -4.978405 7.234173 -7.650719 -1.305160 0.000002 -0.000000 21.375504 -42.777287 -51.459301 -2.559209 -0.000000 -0.000001 -61.121888 28.112613 -117.203738 -2.378449 0.000001 -0.000000 -15.418759 57.414925 1.976967 0.908180 0.000001 0.000000 -9.276594 -1.180465 -1.804929 -0.000000 3.819491 0.000002 11.276046 -1.900066 -5.199587 -0.000000 4.004300 0.000001 -3.932239 -3.631831 -22.098321 -0.000000 0.590316 -1.362270 0.000002 0.000000 0.000002 -0.908180 0.000000 0.000000 -21.397907 16.212040 -8.243448 0.000000 3.819489 0.000002 23.197624 -5.928873 -14.305091 -0.000000 4.004301 0.000001 -3.074046 -1.835347 47.967872 -0.000000 0.590316 -1.362271 0.000005 0.000003 0.000001 
-1.597036 -7.957080 -1.959502 7.224733 0.390700 3.060216 -0.000000 -0.744706 -0.000000 -21.749938 1.245991 -9.913154 0.000000 -2.032239 -0.000001 21.377794 -8.571079 -4.846566 0.000000 -2.213882 -0.000000 1.245600 -7.673852 1.122843 -0.000000 -1.407679 -0.181637 6.607885 2.394193 0.053927 0.365767 -1.787592 0.048012 -4.162233 -13.205477 0.630474 1.305161 0.000001 -0.000000 6.608556 46.188751 14.207868 2.559211 -0.000000 0.000000 -35.205783 -1.473117 75.043097 2.378448 -0.000000 -0.000001 -29.017847 -32.453412 -17.256394 -0.360721 -1.787591 0.048012 -4.742156 7.195200 -7.502572 -1.305160 0.000003 -0.000000 22.147828 -42.794492 -52.011682 -2.559211 -0.000000 -0.000001 -60.957587 28.487362 -117.035360 -2.378448 0.000002 0.000001 -14.476123 57.539897 2.617135 0.908180 0.000002 -0.000000 -9.328332 -1.164046 -1.971501 -0.000000 3.819491 0.000002 11.464683 -1.813587 -5.324311 0.000000 4.004298 0.000001 -4.004428 -3.715510 -21.919472 -0.000000 0.590316 -1.362270 0.000002 -0.000002 -0.000000 -0.908180 0.000002 -0.000000 -21.464776 16.003314 -8.576587 0.000000 3.819488 0.000001 23.551799 -6.181141 -14.224783 0.000000 4.004301 0.000001 -3.549969 -1.352647 47.982359 -0.000001 0.590317 -1.362269 0.000003 0.000001 0.000003 
-1.583374 -7.957637 -1.955320 7.148625 0.400809 3.153714 -0.000000 -0.744706 0.000000 -21.628134 1.237579 -9.628232 0.000000 -2.032238 0.000000 21.281604 -8.488899 -4.729314 0.000000 -2.213883 -0.000000 1.510279 -7.763760 0.783915 -0.000000 -1.407679 -0.181637 6.430796 2.709620 -0.315777 0.365767 -1.787592 0.048012 -4.497438 -13.155002 0.943423 1.305160 0.000001 -0.000000 4.679881 45.729609 13.329761 2.559209 0.000001 0.000000 -35.955222 -2.152893 74.755273 2.378449 -0.000001 -0.000001 -28.838326 -35.612425 -16.928694 -0.360721 -1.787592 0.048012 -4.556437 7.213900 -7.445450 -1.305161 -0.000001 0.000000 22.969918 -42.690130 -52.591552 -2.559209 0.000000 -0.000001 -60.945983 28.919076 -116.823323 -2.378452 0.000000 0.000001 -13.822711 57.958684 2.905759 0.908180 0.000001 0.000000 -9.392952 -1.108480 -2.189654 0.000000 3.819490 0.000001 11.677837 -1.812592 -5.514224 0.000000 4.004300 0.000001 -4.088489 -3.717603 -21.629959 0.000000 0.590317 -1.362270 0.000005 0.000001 -0.000001 -0.908180 0.000002 -0.000000 -21.507422 15.803794 -8.903661 0.000000 3.819490 0.000001 23.788757 -6.292738 -14.367240 0.000000 4.004301 0.000001 -3.627965 -0.743860 47.933438 0.000000 0.590317 -1.362270 0.000005 0.000001 -0.000003 
-1.570978 -7.957819 -1.951319 7.106364 0.396625 3.241654 -0.000000 -0.744706 -0.000000 -21.532424 1.239457 -9.350416 0.000000 -2.032238 0.000000 21.160339 -8.391383 -4.609120 0.000000 -2.213882 -0.000000 1.811355 -7.942662 0.476788 0.000000 -1.407684 -0.181636 6.222122 3.191141 -0.672773 0.365767 -1.787591 0.048012 -4.861166 -13.157419 1.268928 1.305160 -0.000001 -0.000000 2.795100 45.135481 12.407281 2.559208 0.000001 0.000000 -36.400697 -2.947550 74.325162 2.378450 -0.000001 -0.000001 -28.306619 -38.796830 -16.542349 -0.360721 -1.787591 0.048012 -4.393669 7.188847 -7.391947 -1.305160 0.000001 -0.000000 23.749695 -42.653708 -52.974401 -2.559210 -0.000000 -0.000001 -60.713285 29.313857 -116.607189 -2.378450 0.000003 -0.000001 -12.904203 58.286335 3.384771 0.908180 0.000002 -0.000000 -9.470088 -1.130917 -2.263580 -0.000000 3.819491 0.000002 11.875754 -1.624947 -5.593055 0.000000 4.004300 0.000001 -4.174720 -3.815047 -21.541230 -0.000000 0.590318 -1.362270 0.000004 0.000002 0.000003 -0.908180 0.000002 -0.000000 -21.569280 15.596865 -9.168643 0.000000 3.819490 0.000001 24.153757 -6.373445 -15.015105 0.000000 4.004299 0.000001 -3.837259 0.079703 48.152318 0.000001 0.590316 -1.362270 0.000004 -0.000001 0.000002 
-1.559341 -7.957623 -1.947052 7.088346 0.390428 3.327540 0.000000 -0.744707 -0.000000 -21.429266 1.274262 -9.087111 0.000000 -2.032238 -0.000000 20.984832 -8.356139 -4.499417 0.000000 -2.213881 -0.000000 2.098614 -8.063235 0.156840 0.000000 -1.407678 -0.181636 6.046844 3.625534 -1.034113 0.365767 -1.787591 0.048012 -5.229272 -13.176710 1.613228 1.305160 -0.000000 0.000000 1.137298 44.458316 11.566646 2.559210 -0.000001 0.000000 -36.769101 -3.886786 73.817078 2.378449 -0.000001 -0.000002 -27.658545 -41.499738 -16.250200 -0.360721 -1.787591 0.048012 -4.134687 7.214591 -7.262932 -1.305160 0.000000 -0.000000 24.623949 -42.461445 -53.457521 -2.559211 0.000000 -0.000001 -60.558793 29.691771 -116.391013 -2.378450 0.000002 -0.000000 -12.071124 58.401184 3.912574 0.908180 0.000001 -0.000000 -9.587729 -1.170181 -2.338814 0.000000 3.819490 0.000002 12.125489 -1.440955 -5.553887 0.000000 4.004298 0.000002 -4.277980 -3.927637 -21.483006 -0.000000 0.590316 -1.362269 -0.000003 0.000003 -0.000001 -0.908180 0.000001 -0.000000 -21.663801 15.394295 -9.439210 0.000000 3.819490 0.000001 24.458257 -6.376393 -15.747962 -0.000001 4.004300 0.000001 -4.124429 0.639430 48.372216 -0.000000 0.590316 -1.362270 0.000005 -0.000000 0.000002 
